<svg id="visual" viewBox="0 0 2560 300" width="2560" height="300" xmlns="http://www.w3.org/2000/svg" xmlns:xlink="http://www.w3.org/1999/xlink" version="1.1"><rect x="0" y="0" width="2560" height="300" fill="#001220"></rect><path d="M0 192L18.5 191.3C37 190.7 74 189.3 111.2 192.8C148.3 196.3 185.7 204.7 222.8 209.8C260 215 297 217 334 211.7C371 206.3 408 193.7 445.2 189C482.3 184.3 519.7 187.7 556.8 190.7C594 193.7 631 196.3 668 194C705 191.7 742 184.3 779 188.2C816 192 853 207 890.2 209.3C927.3 211.7 964.7 201.3 1001.8 197.5C1039 193.7 1076 196.3 1113 200.5C1150 204.7 1187 210.3 1224.2 204.7C1261.3 199 1298.7 182 1335.8 176.5C1373 171 1410 177 1447 179.5C1484 182 1521 181 1558.2 185.8C1595.3 190.7 1632.7 201.3 1669.8 203.7C1707 206 1744 200 1781 202C1818 204 1855 214 1892 214.5C1929 215 1966 206 2003.2 195.7C2040.3 185.3 2077.7 173.7 2114.8 176C2152 178.3 2189 194.7 2226 195.3C2263 196 2300 181 2337.2 184C2374.3 187 2411.7 208 2448.8 217.3C2486 226.7 2523 224.3 2541.5 223.2L2560 222L2560 0L2541.5 0C2523 0 2486 0 2448.8 0C2411.7 0 2374.3 0 2337.2 0C2300 0 2263 0 2226 0C2189 0 2152 0 2114.8 0C2077.7 0 2040.3 0 2003.2 0C1966 0 1929 0 1892 0C1855 0 1818 0 1781 0C1744 0 1707 0 1669.8 0C1632.7 0 1595.3 0 1558.2 0C1521 0 1484 0 1447 0C1410 0 1373 0 1335.8 0C1298.7 0 1261.3 0 1224.2 0C1187 0 1150 0 1113 0C1076 0 1039 0 1001.8 0C964.7 0 927.3 0 890.2 0C853 0 816 0 779 0C742 0 705 0 668 0C631 0 594 0 556.8 0C519.7 0 482.3 0 445.2 0C408 0 371 0 334 0C297 0 260 0 222.8 0C185.7 0 148.3 0 111.2 0C74 0 37 0 18.5 0L0 0Z" fill="#fa7268"></path><path d="M0 124L18.5 131C37 138 74 152 111.2 152.8C148.3 153.7 185.7 141.3 222.8 139.5C260 137.7 297 146.3 334 154.3C371 162.3 408 169.7 445.2 163C482.3 156.3 519.7 135.7 556.8 134.7C594 133.7 631 152.3 668 155.3C705 158.3 742 145.7 779 146.2C816 146.7 853 160.3 890.2 166C927.3 171.7 964.7 169.3 1001.8 159.8C1039 150.3 1076 133.7 1113 126.3C1150 119 1187 121 1224.2 121.5C1261.3 122 1298.7 121 1335.8 121.2C1373 121.3 1410 122.7 1447 123.5C1484 124.3 1521 124.7 1558.2 125.5C1595.3 126.3 1632.7 127.7 1669.8 125.8C1707 124 1744 119 1781 127.2C1818 135.3 1855 156.7 1892 164C1929 171.3 1966 164.7 2003.2 155.3C2040.3 146 2077.7 134 2114.8 132.5C2152 131 2189 140 2226 144.7C2263 149.3 2300 149.7 2337.2 154.5C2374.3 159.3 2411.7 168.7 2448.8 170.7C2486 172.7 2523 167.3 2541.5 164.7L2560 162L2560 0L2541.5 0C2523 0 2486 0 2448.8 0C2411.7 0 2374.3 0 2337.2 0C2300 0 2263 0 2226 0C2189 0 2152 0 2114.8 0C2077.7 0 2040.3 0 2003.2 0C1966 0 1929 0 1892 0C1855 0 1818 0 1781 0C1744 0 1707 0 1669.8 0C1632.7 0 1595.3 0 1558.2 0C1521 0 1484 0 1447 0C1410 0 1373 0 1335.8 0C1298.7 0 1261.3 0 1224.2 0C1187 0 1150 0 1113 0C1076 0 1039 0 1001.8 0C964.7 0 927.3 0 890.2 0C853 0 816 0 779 0C742 0 705 0 668 0C631 0 594 0 556.8 0C519.7 0 482.3 0 445.2 0C408 0 371 0 334 0C297 0 260 0 222.8 0C185.7 0 148.3 0 111.2 0C74 0 37 0 18.5 0L0 0Z" fill="#eb5967"></path><path d="M0 71L18.5 77.8C37 84.7 74 98.3 111.2 105.5C148.3 112.7 185.7 113.3 222.8 108.2C260 103 297 92 334 85.7C371 79.3 408 77.7 445.2 80.5C482.3 83.3 519.7 90.7 556.8 90.2C594 89.7 631 81.3 668 83C705 84.7 742 96.3 779 105.5C816 114.7 853 121.3 890.2 115.5C927.3 109.7 964.7 91.3 1001.8 82C1039 72.7 1076 72.3 1113 81C1150 89.7 1187 107.3 1224.2 116.3C1261.3 125.3 1298.7 125.7 1335.8 120.7C1373 115.7 1410 105.3 1447 102.2C1484 99 1521 103 1558.2 101.2C1595.3 99.3 1632.7 91.7 1669.8 87C1707 82.3 1744 80.7 1781 80.8C1818 81 1855 83 1892 85C1929 87 1966 89 2003.2 86.5C2040.3 84 2077.7 77 2114.8 75.3C2152 73.7 2189 77.3 2226 86C2263 94.7 2300 108.3 2337.2 116.5C2374.3 124.7 2411.7 127.3 2448.8 121.3C2486 115.3 2523 100.7 2541.5 93.3L2560 86L2560 0L2541.5 0C2523 0 2486 0 2448.8 0C2411.7 0 2374.3 0 2337.2 0C2300 0 2263 0 2226 0C2189 0 2152 0 2114.8 0C2077.7 0 2040.3 0 2003.2 0C1966 0 1929 0 1892 0C1855 0 1818 0 1781 0C1744 0 1707 0 1669.8 0C1632.7 0 1595.3 0 1558.2 0C1521 0 1484 0 1447 0C1410 0 1373 0 1335.8 0C1298.7 0 1261.3 0 1224.2 0C1187 0 1150 0 1113 0C1076 0 1039 0 1001.8 0C964.7 0 927.3 0 890.2 0C853 0 816 0 779 0C742 0 705 0 668 0C631 0 594 0 556.8 0C519.7 0 482.3 0 445.2 0C408 0 371 0 334 0C297 0 260 0 222.8 0C185.7 0 148.3 0 111.2 0C74 0 37 0 18.5 0L0 0Z" fill="#da3f67"></path><path d="M0 74L18.5 71.5C37 69 74 64 111.2 60.3C148.3 56.7 185.7 54.3 222.8 55.2C260 56 297 60 334 56.3C371 52.7 408 41.3 445.2 41.3C482.3 41.3 519.7 52.7 556.8 56C594 59.3 631 54.7 668 53.3C705 52 742 54 779 53.2C816 52.3 853 48.7 890.2 48.8C927.3 49 964.7 53 1001.8 56.3C1039 59.7 1076 62.3 1113 64.8C1150 67.3 1187 69.7 1224.2 71.3C1261.3 73 1298.7 74 1335.8 68C1373 62 1410 49 1447 49.3C1484 49.7 1521 63.3 1558.2 64.3C1595.3 65.3 1632.7 53.7 1669.8 53.8C1707 54 1744 66 1781 68.5C1818 71 1855 64 1892 55.3C1929 46.7 1966 36.3 2003.2 39.8C2040.3 43.3 2077.7 60.7 2114.8 61.5C2152 62.3 2189 46.7 2226 39.3C2263 32 2300 33 2337.2 40.8C2374.3 48.7 2411.7 63.3 2448.8 69.5C2486 75.7 2523 73.3 2541.5 72.2L2560 71L2560 0L2541.5 0C2523 0 2486 0 2448.8 0C2411.7 0 2374.3 0 2337.2 0C2300 0 2263 0 2226 0C2189 0 2152 0 2114.8 0C2077.7 0 2040.3 0 2003.2 0C1966 0 1929 0 1892 0C1855 0 1818 0 1781 0C1744 0 1707 0 1669.8 0C1632.7 0 1595.3 0 1558.2 0C1521 0 1484 0 1447 0C1410 0 1373 0 1335.8 0C1298.7 0 1261.3 0 1224.2 0C1187 0 1150 0 1113 0C1076 0 1039 0 1001.8 0C964.7 0 927.3 0 890.2 0C853 0 816 0 779 0C742 0 705 0 668 0C631 0 594 0 556.8 0C519.7 0 482.3 0 445.2 0C408 0 371 0 334 0C297 0 260 0 222.8 0C185.7 0 148.3 0 111.2 0C74 0 37 0 18.5 0L0 0Z" fill="#c62368"></path></svg>