<svg id="visual" viewBox="0 0 2560 300" width="2560" height="300" xmlns="http://www.w3.org/2000/svg" xmlns:xlink="http://www.w3.org/1999/xlink" version="1.1"><rect x="0" y="0" width="2560" height="300" fill="#001220"></rect><path d="M0 207L18.5 202.2C37 197.3 74 187.7 111.2 178.3C148.3 169 185.7 160 222.8 162.2C260 164.3 297 177.7 334 178.5C371 179.3 408 167.7 445.2 172.3C482.3 177 519.7 198 556.8 197.7C594 197.3 631 175.7 668 175.2C705 174.7 742 195.3 779 205.2C816 215 853 214 890.2 202.3C927.3 190.7 964.7 168.3 1001.8 158C1039 147.7 1076 149.3 1113 153.3C1150 157.3 1187 163.7 1224.2 174.8C1261.3 186 1298.7 202 1335.8 201.5C1373 201 1410 184 1447 184.3C1484 184.7 1521 202.3 1558.2 209.5C1595.3 216.7 1632.7 213.3 1669.8 199.7C1707 186 1744 162 1781 150.2C1818 138.3 1855 138.7 1892 149.5C1929 160.3 1966 181.7 2003.2 190.7C2040.3 199.7 2077.7 196.3 2114.8 186.3C2152 176.3 2189 159.7 2226 160.3C2263 161 2300 179 2337.2 178.7C2374.3 178.3 2411.7 159.7 2448.8 162.7C2486 165.7 2523 190.3 2541.5 202.7L2560 215L2560 0L2541.5 0C2523 0 2486 0 2448.8 0C2411.7 0 2374.3 0 2337.2 0C2300 0 2263 0 2226 0C2189 0 2152 0 2114.8 0C2077.7 0 2040.3 0 2003.2 0C1966 0 1929 0 1892 0C1855 0 1818 0 1781 0C1744 0 1707 0 1669.8 0C1632.7 0 1595.3 0 1558.2 0C1521 0 1484 0 1447 0C1410 0 1373 0 1335.8 0C1298.7 0 1261.3 0 1224.2 0C1187 0 1150 0 1113 0C1076 0 1039 0 1001.8 0C964.7 0 927.3 0 890.2 0C853 0 816 0 779 0C742 0 705 0 668 0C631 0 594 0 556.8 0C519.7 0 482.3 0 445.2 0C408 0 371 0 334 0C297 0 260 0 222.8 0C185.7 0 148.3 0 111.2 0C74 0 37 0 18.5 0L0 0Z" fill="#4facf7"></path><path d="M0 120L18.5 120.8C37 121.7 74 123.3 111.2 133.5C148.3 143.7 185.7 162.3 222.8 161.2C260 160 297 139 334 136C371 133 408 148 445.2 158.2C482.3 168.3 519.7 173.7 556.8 169.7C594 165.7 631 152.3 668 148.5C705 144.7 742 150.3 779 149.7C816 149 853 142 890.2 139.2C927.3 136.3 964.7 137.7 1001.8 134.8C1039 132 1076 125 1113 131.2C1150 137.3 1187 156.7 1224.2 166.2C1261.3 175.7 1298.7 175.3 1335.8 170.5C1373 165.7 1410 156.3 1447 154.5C1484 152.7 1521 158.3 1558.2 159.5C1595.3 160.7 1632.7 157.3 1669.8 155.3C1707 153.3 1744 152.7 1781 153.3C1818 154 1855 156 1892 151C1929 146 1966 134 2003.2 126.3C2040.3 118.7 2077.7 115.3 2114.8 114.2C2152 113 2189 114 2226 116.5C2263 119 2300 123 2337.2 124C2374.3 125 2411.7 123 2448.8 127.3C2486 131.7 2523 142.3 2541.5 147.7L2560 153L2560 0L2541.5 0C2523 0 2486 0 2448.8 0C2411.7 0 2374.3 0 2337.2 0C2300 0 2263 0 2226 0C2189 0 2152 0 2114.8 0C2077.7 0 2040.3 0 2003.2 0C1966 0 1929 0 1892 0C1855 0 1818 0 1781 0C1744 0 1707 0 1669.8 0C1632.7 0 1595.3 0 1558.2 0C1521 0 1484 0 1447 0C1410 0 1373 0 1335.8 0C1298.7 0 1261.3 0 1224.2 0C1187 0 1150 0 1113 0C1076 0 1039 0 1001.8 0C964.7 0 927.3 0 890.2 0C853 0 816 0 779 0C742 0 705 0 668 0C631 0 594 0 556.8 0C519.7 0 482.3 0 445.2 0C408 0 371 0 334 0C297 0 260 0 222.8 0C185.7 0 148.3 0 111.2 0C74 0 37 0 18.5 0L0 0Z" fill="#3b8ad6"></path><path d="M0 122L18.5 125.2C37 128.3 74 134.7 111.2 129.2C148.3 123.7 185.7 106.3 222.8 102.5C260 98.7 297 108.3 334 112.5C371 116.7 408 115.3 445.2 114.2C482.3 113 519.7 112 556.8 116C594 120 631 129 668 130.8C705 132.7 742 127.3 779 126C816 124.7 853 127.3 890.2 125.7C927.3 124 964.7 118 1001.8 118.2C1039 118.3 1076 124.7 1113 127.2C1150 129.7 1187 128.3 1224.2 121.2C1261.3 114 1298.7 101 1335.8 97.2C1373 93.3 1410 98.7 1447 104.2C1484 109.7 1521 115.3 1558.2 121C1595.3 126.7 1632.7 132.3 1669.8 126.5C1707 120.7 1744 103.3 1781 97.3C1818 91.3 1855 96.7 1892 97.2C1929 97.7 1966 93.3 2003.2 100C2040.3 106.7 2077.7 124.3 2114.8 130C2152 135.7 2189 129.3 2226 119.5C2263 109.7 2300 96.3 2337.2 93.5C2374.3 90.7 2411.7 98.3 2448.8 102.7C2486 107 2523 108 2541.5 108.5L2560 109L2560 0L2541.5 0C2523 0 2486 0 2448.8 0C2411.7 0 2374.3 0 2337.2 0C2300 0 2263 0 2226 0C2189 0 2152 0 2114.8 0C2077.7 0 2040.3 0 2003.2 0C1966 0 1929 0 1892 0C1855 0 1818 0 1781 0C1744 0 1707 0 1669.8 0C1632.7 0 1595.3 0 1558.2 0C1521 0 1484 0 1447 0C1410 0 1373 0 1335.8 0C1298.7 0 1261.3 0 1224.2 0C1187 0 1150 0 1113 0C1076 0 1039 0 1001.8 0C964.7 0 927.3 0 890.2 0C853 0 816 0 779 0C742 0 705 0 668 0C631 0 594 0 556.8 0C519.7 0 482.3 0 445.2 0C408 0 371 0 334 0C297 0 260 0 222.8 0C185.7 0 148.3 0 111.2 0C74 0 37 0 18.5 0L0 0Z" fill="#2869b4"></path><path d="M0 61L18.5 63.2C37 65.3 74 69.7 111.2 70.8C148.3 72 185.7 70 222.8 66.8C260 63.7 297 59.3 334 59C371 58.7 408 62.3 445.2 62.8C482.3 63.3 519.7 60.7 556.8 65.2C594 69.7 631 81.3 668 81.5C705 81.7 742 70.3 779 68.2C816 66 853 73 890.2 80.2C927.3 87.3 964.7 94.7 1001.8 92.2C1039 89.7 1076 77.3 1113 68.7C1150 60 1187 55 1224.2 60.2C1261.3 65.3 1298.7 80.7 1335.8 82.5C1373 84.3 1410 72.7 1447 71C1484 69.3 1521 77.7 1558.2 85.2C1595.3 92.7 1632.7 99.3 1669.8 102.2C1707 105 1744 104 1781 97.8C1818 91.7 1855 80.3 1892 73.8C1929 67.3 1966 65.7 2003.2 62.8C2040.3 60 2077.7 56 2114.8 54C2152 52 2189 52 2226 58.3C2263 64.7 2300 77.3 2337.2 80.8C2374.3 84.3 2411.7 78.7 2448.8 77.8C2486 77 2523 81 2541.5 83L2560 85L2560 0L2541.5 0C2523 0 2486 0 2448.8 0C2411.7 0 2374.3 0 2337.2 0C2300 0 2263 0 2226 0C2189 0 2152 0 2114.8 0C2077.7 0 2040.3 0 2003.2 0C1966 0 1929 0 1892 0C1855 0 1818 0 1781 0C1744 0 1707 0 1669.8 0C1632.7 0 1595.3 0 1558.2 0C1521 0 1484 0 1447 0C1410 0 1373 0 1335.8 0C1298.7 0 1261.3 0 1224.2 0C1187 0 1150 0 1113 0C1076 0 1039 0 1001.8 0C964.7 0 927.3 0 890.2 0C853 0 816 0 779 0C742 0 705 0 668 0C631 0 594 0 556.8 0C519.7 0 482.3 0 445.2 0C408 0 371 0 334 0C297 0 260 0 222.8 0C185.7 0 148.3 0 111.2 0C74 0 37 0 18.5 0L0 0Z" fill="#154a93"></path><path d="M0 55L18.5 55C37 55 74 55 111.2 56.3C148.3 57.7 185.7 60.3 222.8 60.2C260 60 297 57 334 52C371 47 408 40 445.2 41.3C482.3 42.7 519.7 52.3 556.8 56C594 59.7 631 57.3 668 57.8C705 58.3 742 61.7 779 57.3C816 53 853 41 890.2 39.2C927.3 37.3 964.7 45.7 1001.8 47.8C1039 50 1076 46 1113 47C1150 48 1187 54 1224.2 56.3C1261.3 58.7 1298.7 57.3 1335.8 51.8C1373 46.3 1410 36.7 1447 32.7C1484 28.7 1521 30.3 1558.2 30.7C1595.3 31 1632.7 30 1669.8 30.5C1707 31 1744 33 1781 38.8C1818 44.7 1855 54.3 1892 53.8C1929 53.3 1966 42.7 2003.2 40C2040.3 37.3 2077.7 42.7 2114.8 47.8C2152 53 2189 58 2226 55.2C2263 52.3 2300 41.7 2337.2 38C2374.3 34.3 2411.7 37.7 2448.8 43.2C2486 48.7 2523 56.3 2541.5 60.2L2560 64L2560 0L2541.5 0C2523 0 2486 0 2448.8 0C2411.7 0 2374.3 0 2337.2 0C2300 0 2263 0 2226 0C2189 0 2152 0 2114.8 0C2077.7 0 2040.3 0 2003.2 0C1966 0 1929 0 1892 0C1855 0 1818 0 1781 0C1744 0 1707 0 1669.8 0C1632.7 0 1595.3 0 1558.2 0C1521 0 1484 0 1447 0C1410 0 1373 0 1335.8 0C1298.7 0 1261.3 0 1224.2 0C1187 0 1150 0 1113 0C1076 0 1039 0 1001.8 0C964.7 0 927.3 0 890.2 0C853 0 816 0 779 0C742 0 705 0 668 0C631 0 594 0 556.8 0C519.7 0 482.3 0 445.2 0C408 0 371 0 334 0C297 0 260 0 222.8 0C185.7 0 148.3 0 111.2 0C74 0 37 0 18.5 0L0 0Z" fill="#002d72"></path></svg>