<svg id="visual" viewBox="0 0 2560 300" width="2560" height="300" xmlns="http://www.w3.org/2000/svg" xmlns:xlink="http://www.w3.org/1999/xlink" version="1.1"><rect x="0" y="0" width="2560" height="300" fill="#001220"></rect><path d="M0 134L30.5 117.8C61 101.7 122 69.3 183 64.5C244 59.7 305 82.3 366 92.3C427 102.3 488 99.7 548.8 85.5C609.7 71.3 670.3 45.7 731.2 55C792 64.3 853 108.7 914 108.7C975 108.7 1036 64.3 1097 59.7C1158 55 1219 90 1280 110C1341 130 1402 135 1463 124.3C1524 113.7 1585 87.3 1646 73.5C1707 59.7 1768 58.3 1828.8 59.8C1889.7 61.3 1950.3 65.7 2011.2 85C2072 104.3 2133 138.7 2194 138C2255 137.3 2316 101.7 2377 95.7C2438 89.7 2499 113.3 2529.5 125.2L2560 137L2560 301L2529.5 301C2499 301 2438 301 2377 301C2316 301 2255 301 2194 301C2133 301 2072 301 2011.2 301C1950.3 301 1889.7 301 1828.8 301C1768 301 1707 301 1646 301C1585 301 1524 301 1463 301C1402 301 1341 301 1280 301C1219 301 1158 301 1097 301C1036 301 975 301 914 301C853 301 792 301 731.2 301C670.3 301 609.7 301 548.8 301C488 301 427 301 366 301C305 301 244 301 183 301C122 301 61 301 30.5 301L0 301Z" fill="#a8a89e"></path><path d="M0 224L30.5 202.2C61 180.3 122 136.7 183 119.8C244 103 305 113 366 128.3C427 143.7 488 164.3 548.8 167.8C609.7 171.3 670.3 157.7 731.2 138.2C792 118.7 853 93.3 914 90.2C975 87 1036 106 1097 110.2C1158 114.3 1219 103.7 1280 103.7C1341 103.7 1402 114.3 1463 119.3C1524 124.3 1585 123.7 1646 111.8C1707 100 1768 77 1828.8 93.5C1889.7 110 1950.3 166 2011.2 189.3C2072 212.7 2133 203.3 2194 193C2255 182.7 2316 171.3 2377 163C2438 154.7 2499 149.3 2529.5 146.7L2560 144L2560 301L2529.5 301C2499 301 2438 301 2377 301C2316 301 2255 301 2194 301C2133 301 2072 301 2011.2 301C1950.3 301 1889.7 301 1828.8 301C1768 301 1707 301 1646 301C1585 301 1524 301 1463 301C1402 301 1341 301 1280 301C1219 301 1158 301 1097 301C1036 301 975 301 914 301C853 301 792 301 731.2 301C670.3 301 609.7 301 548.8 301C488 301 427 301 366 301C305 301 244 301 183 301C122 301 61 301 30.5 301L0 301Z" fill="#a09e94"></path><path d="M0 235L30.5 223.7C61 212.3 122 189.7 183 181.2C244 172.7 305 178.3 366 178.8C427 179.3 488 174.7 548.8 184.8C609.7 195 670.3 220 731.2 214.3C792 208.7 853 172.3 914 159.3C975 146.3 1036 156.7 1097 161.7C1158 166.7 1219 166.3 1280 167.3C1341 168.3 1402 170.7 1463 164C1524 157.3 1585 141.7 1646 138.7C1707 135.7 1768 145.3 1828.8 149.3C1889.7 153.3 1950.3 151.7 2011.2 166C2072 180.3 2133 210.7 2194 212.5C2255 214.3 2316 187.7 2377 183.8C2438 180 2499 199 2529.5 208.5L2560 218L2560 301L2529.5 301C2499 301 2438 301 2377 301C2316 301 2255 301 2194 301C2133 301 2072 301 2011.2 301C1950.3 301 1889.7 301 1828.8 301C1768 301 1707 301 1646 301C1585 301 1524 301 1463 301C1402 301 1341 301 1280 301C1219 301 1158 301 1097 301C1036 301 975 301 914 301C853 301 792 301 731.2 301C670.3 301 609.7 301 548.8 301C488 301 427 301 366 301C305 301 244 301 183 301C122 301 61 301 30.5 301L0 301Z" fill="#98958a"></path><path d="M0 272L30.5 252C61 232 122 192 183 171.7C244 151.3 305 150.7 366 157C427 163.3 488 176.7 548.8 194.7C609.7 212.7 670.3 235.3 731.2 240.8C792 246.3 853 234.7 914 236.8C975 239 1036 255 1097 254.8C1158 254.7 1219 238.3 1280 238.7C1341 239 1402 256 1463 252C1524 248 1585 223 1646 208.2C1707 193.3 1768 188.7 1828.8 184.5C1889.7 180.3 1950.3 176.7 2011.2 188C2072 199.3 2133 225.7 2194 239.8C2255 254 2316 256 2377 251C2438 246 2499 234 2529.5 228L2560 222L2560 301L2529.5 301C2499 301 2438 301 2377 301C2316 301 2255 301 2194 301C2133 301 2072 301 2011.2 301C1950.3 301 1889.7 301 1828.8 301C1768 301 1707 301 1646 301C1585 301 1524 301 1463 301C1402 301 1341 301 1280 301C1219 301 1158 301 1097 301C1036 301 975 301 914 301C853 301 792 301 731.2 301C670.3 301 609.7 301 548.8 301C488 301 427 301 366 301C305 301 244 301 183 301C122 301 61 301 30.5 301L0 301Z" fill="#908b80"></path><path d="M0 275L30.5 275.3C61 275.7 122 276.3 183 274.7C244 273 305 269 366 263.7C427 258.3 488 251.7 548.8 243.3C609.7 235 670.3 225 731.2 221.7C792 218.3 853 221.7 914 232C975 242.3 1036 259.7 1097 264.7C1158 269.7 1219 262.3 1280 258.3C1341 254.3 1402 253.7 1463 253.7C1524 253.7 1585 254.3 1646 249.8C1707 245.3 1768 235.7 1828.8 236.8C1889.7 238 1950.3 250 2011.2 255.8C2072 261.7 2133 261.3 2194 256.7C2255 252 2316 243 2377 238.5C2438 234 2499 234 2529.5 234L2560 234L2560 301L2529.5 301C2499 301 2438 301 2377 301C2316 301 2255 301 2194 301C2133 301 2072 301 2011.2 301C1950.3 301 1889.7 301 1828.8 301C1768 301 1707 301 1646 301C1585 301 1524 301 1463 301C1402 301 1341 301 1280 301C1219 301 1158 301 1097 301C1036 301 975 301 914 301C853 301 792 301 731.2 301C670.3 301 609.7 301 548.8 301C488 301 427 301 366 301C305 301 244 301 183 301C122 301 61 301 30.5 301L0 301Z" fill="#888277"></path></svg>