<svg id="visual" viewBox="0 0 2560 300" width="2560" height="300" xmlns="http://www.w3.org/2000/svg" xmlns:xlink="http://www.w3.org/1999/xlink" version="1.1"><rect x="0" y="0" width="2560" height="300" fill="#001220"></rect><path d="M0 91L18.5 95.8C37 100.7 74 110.3 111.2 119.7C148.3 129 185.7 138 222.8 135.8C260 133.7 297 120.3 334 119.5C371 118.7 408 130.3 445.2 125.7C482.3 121 519.7 100 556.8 100.3C594 100.7 631 122.3 668 122.8C705 123.3 742 102.7 779 92.8C816 83 853 84 890.2 95.7C927.3 107.3 964.7 129.7 1001.8 140C1039 150.3 1076 148.7 1113 144.7C1150 140.7 1187 134.3 1224.2 123.2C1261.3 112 1298.7 96 1335.8 96.5C1373 97 1410 114 1447 113.7C1484 113.3 1521 95.7 1558.2 88.5C1595.3 81.3 1632.7 84.7 1669.8 98.3C1707 112 1744 136 1781 147.8C1818 159.7 1855 159.3 1892 148.5C1929 137.7 1966 116.3 2003.2 107.3C2040.3 98.3 2077.7 101.7 2114.8 111.7C2152 121.7 2189 138.3 2226 137.7C2263 137 2300 119 2337.2 119.3C2374.3 119.7 2411.7 138.3 2448.8 135.3C2486 132.3 2523 107.7 2541.5 95.3L2560 83L2560 301L2541.5 301C2523 301 2486 301 2448.8 301C2411.7 301 2374.3 301 2337.2 301C2300 301 2263 301 2226 301C2189 301 2152 301 2114.8 301C2077.7 301 2040.3 301 2003.2 301C1966 301 1929 301 1892 301C1855 301 1818 301 1781 301C1744 301 1707 301 1669.8 301C1632.7 301 1595.3 301 1558.2 301C1521 301 1484 301 1447 301C1410 301 1373 301 1335.8 301C1298.7 301 1261.3 301 1224.2 301C1187 301 1150 301 1113 301C1076 301 1039 301 1001.8 301C964.7 301 927.3 301 890.2 301C853 301 816 301 779 301C742 301 705 301 668 301C631 301 594 301 556.8 301C519.7 301 482.3 301 445.2 301C408 301 371 301 334 301C297 301 260 301 222.8 301C185.7 301 148.3 301 111.2 301C74 301 37 301 18.5 301L0 301Z" fill="#4facf7"></path><path d="M0 178L18.5 177.2C37 176.3 74 174.7 111.2 164.5C148.3 154.3 185.7 135.7 222.8 136.8C260 138 297 159 334 162C371 165 408 150 445.2 139.8C482.3 129.7 519.7 124.3 556.8 128.3C594 132.3 631 145.7 668 149.5C705 153.3 742 147.7 779 148.3C816 149 853 156 890.2 158.8C927.3 161.7 964.7 160.3 1001.8 163.2C1039 166 1076 173 1113 166.8C1150 160.7 1187 141.3 1224.2 131.8C1261.3 122.3 1298.7 122.7 1335.8 127.5C1373 132.3 1410 141.7 1447 143.5C1484 145.3 1521 139.7 1558.2 138.5C1595.3 137.3 1632.7 140.7 1669.8 142.7C1707 144.7 1744 145.3 1781 144.7C1818 144 1855 142 1892 147C1929 152 1966 164 2003.2 171.7C2040.3 179.3 2077.7 182.7 2114.8 183.8C2152 185 2189 184 2226 181.5C2263 179 2300 175 2337.2 174C2374.3 173 2411.7 175 2448.8 170.7C2486 166.3 2523 155.7 2541.5 150.3L2560 145L2560 301L2541.5 301C2523 301 2486 301 2448.8 301C2411.7 301 2374.3 301 2337.2 301C2300 301 2263 301 2226 301C2189 301 2152 301 2114.8 301C2077.7 301 2040.3 301 2003.2 301C1966 301 1929 301 1892 301C1855 301 1818 301 1781 301C1744 301 1707 301 1669.8 301C1632.7 301 1595.3 301 1558.2 301C1521 301 1484 301 1447 301C1410 301 1373 301 1335.8 301C1298.7 301 1261.3 301 1224.2 301C1187 301 1150 301 1113 301C1076 301 1039 301 1001.8 301C964.7 301 927.3 301 890.2 301C853 301 816 301 779 301C742 301 705 301 668 301C631 301 594 301 556.8 301C519.7 301 482.3 301 445.2 301C408 301 371 301 334 301C297 301 260 301 222.8 301C185.7 301 148.3 301 111.2 301C74 301 37 301 18.5 301L0 301Z" fill="#3b8ad6"></path><path d="M0 176L18.5 172.8C37 169.7 74 163.3 111.2 168.8C148.3 174.3 185.7 191.7 222.8 195.5C260 199.3 297 189.7 334 185.5C371 181.3 408 182.7 445.2 183.8C482.3 185 519.7 186 556.8 182C594 178 631 169 668 167.2C705 165.3 742 170.7 779 172C816 173.3 853 170.7 890.2 172.3C927.3 174 964.7 180 1001.8 179.8C1039 179.7 1076 173.3 1113 170.8C1150 168.3 1187 169.7 1224.2 176.8C1261.3 184 1298.7 197 1335.8 200.8C1373 204.7 1410 199.3 1447 193.8C1484 188.3 1521 182.7 1558.2 177C1595.3 171.3 1632.7 165.7 1669.8 171.5C1707 177.3 1744 194.7 1781 200.7C1818 206.7 1855 201.3 1892 200.8C1929 200.3 1966 204.7 2003.2 198C2040.3 191.3 2077.7 173.7 2114.8 168C2152 162.3 2189 168.7 2226 178.5C2263 188.3 2300 201.7 2337.2 204.5C2374.3 207.3 2411.7 199.7 2448.8 195.3C2486 191 2523 190 2541.5 189.5L2560 189L2560 301L2541.5 301C2523 301 2486 301 2448.8 301C2411.7 301 2374.3 301 2337.2 301C2300 301 2263 301 2226 301C2189 301 2152 301 2114.8 301C2077.7 301 2040.3 301 2003.2 301C1966 301 1929 301 1892 301C1855 301 1818 301 1781 301C1744 301 1707 301 1669.8 301C1632.7 301 1595.3 301 1558.2 301C1521 301 1484 301 1447 301C1410 301 1373 301 1335.8 301C1298.7 301 1261.3 301 1224.2 301C1187 301 1150 301 1113 301C1076 301 1039 301 1001.8 301C964.7 301 927.3 301 890.2 301C853 301 816 301 779 301C742 301 705 301 668 301C631 301 594 301 556.8 301C519.7 301 482.3 301 445.2 301C408 301 371 301 334 301C297 301 260 301 222.8 301C185.7 301 148.3 301 111.2 301C74 301 37 301 18.5 301L0 301Z" fill="#2869b4"></path><path d="M0 237L18.5 234.8C37 232.7 74 228.3 111.2 227.2C148.3 226 185.7 228 222.8 231.2C260 234.3 297 238.7 334 239C371 239.3 408 235.7 445.2 235.2C482.3 234.7 519.7 237.3 556.8 232.8C594 228.3 631 216.7 668 216.5C705 216.3 742 227.7 779 229.8C816 232 853 225 890.2 217.8C927.3 210.7 964.7 203.3 1001.8 205.8C1039 208.3 1076 220.7 1113 229.3C1150 238 1187 243 1224.2 237.8C1261.3 232.7 1298.7 217.3 1335.8 215.5C1373 213.7 1410 225.3 1447 227C1484 228.7 1521 220.3 1558.2 212.8C1595.3 205.3 1632.7 198.7 1669.8 195.8C1707 193 1744 194 1781 200.2C1818 206.3 1855 217.7 1892 224.2C1929 230.7 1966 232.3 2003.2 235.2C2040.3 238 2077.7 242 2114.8 244C2152 246 2189 246 2226 239.7C2263 233.3 2300 220.7 2337.2 217.2C2374.3 213.7 2411.7 219.3 2448.8 220.2C2486 221 2523 217 2541.5 215L2560 213L2560 301L2541.5 301C2523 301 2486 301 2448.8 301C2411.7 301 2374.3 301 2337.2 301C2300 301 2263 301 2226 301C2189 301 2152 301 2114.8 301C2077.7 301 2040.3 301 2003.2 301C1966 301 1929 301 1892 301C1855 301 1818 301 1781 301C1744 301 1707 301 1669.8 301C1632.7 301 1595.3 301 1558.2 301C1521 301 1484 301 1447 301C1410 301 1373 301 1335.8 301C1298.7 301 1261.3 301 1224.2 301C1187 301 1150 301 1113 301C1076 301 1039 301 1001.8 301C964.7 301 927.3 301 890.2 301C853 301 816 301 779 301C742 301 705 301 668 301C631 301 594 301 556.8 301C519.7 301 482.3 301 445.2 301C408 301 371 301 334 301C297 301 260 301 222.8 301C185.7 301 148.3 301 111.2 301C74 301 37 301 18.5 301L0 301Z" fill="#154a93"></path><path d="M0 243L18.5 243C37 243 74 243 111.2 241.7C148.3 240.3 185.7 237.7 222.8 237.8C260 238 297 241 334 246C371 251 408 258 445.2 256.7C482.3 255.3 519.7 245.7 556.8 242C594 238.3 631 240.7 668 240.2C705 239.7 742 236.3 779 240.7C816 245 853 257 890.2 258.8C927.3 260.7 964.7 252.3 1001.8 250.2C1039 248 1076 252 1113 251C1150 250 1187 244 1224.2 241.7C1261.3 239.3 1298.7 240.7 1335.8 246.2C1373 251.7 1410 261.3 1447 265.3C1484 269.3 1521 267.7 1558.2 267.3C1595.3 267 1632.7 268 1669.8 267.5C1707 267 1744 265 1781 259.2C1818 253.3 1855 243.7 1892 244.2C1929 244.7 1966 255.3 2003.2 258C2040.3 260.7 2077.7 255.3 2114.8 250.2C2152 245 2189 240 2226 242.8C2263 245.7 2300 256.3 2337.2 260C2374.3 263.7 2411.7 260.3 2448.8 254.8C2486 249.3 2523 241.7 2541.5 237.8L2560 234L2560 301L2541.5 301C2523 301 2486 301 2448.8 301C2411.7 301 2374.3 301 2337.2 301C2300 301 2263 301 2226 301C2189 301 2152 301 2114.8 301C2077.7 301 2040.3 301 2003.2 301C1966 301 1929 301 1892 301C1855 301 1818 301 1781 301C1744 301 1707 301 1669.8 301C1632.7 301 1595.3 301 1558.2 301C1521 301 1484 301 1447 301C1410 301 1373 301 1335.8 301C1298.7 301 1261.3 301 1224.2 301C1187 301 1150 301 1113 301C1076 301 1039 301 1001.8 301C964.7 301 927.3 301 890.2 301C853 301 816 301 779 301C742 301 705 301 668 301C631 301 594 301 556.8 301C519.7 301 482.3 301 445.2 301C408 301 371 301 334 301C297 301 260 301 222.8 301C185.7 301 148.3 301 111.2 301C74 301 37 301 18.5 301L0 301Z" fill="#002d72"></path></svg>