<svg id="visual" viewBox="0 0 960 540" width="960" height="540" xmlns="http://www.w3.org/2000/svg" xmlns:xlink="http://www.w3.org/1999/xlink" version="1.1"><path d="M0 50L14.5 48.2C29 46.3 58 42.7 87.2 41.7C116.3 40.7 145.7 42.3 174.8 54C204 65.7 233 87.3 262 89.2C291 91 320 73 349 72.2C378 71.3 407 87.7 436.2 85C465.3 82.3 494.7 60.7 523.8 63.3C553 66 582 93 611 102.8C640 112.7 669 105.3 698 96.3C727 87.3 756 76.7 785.2 66.8C814.3 57 843.7 48 872.8 50.7C902 53.3 931 67.7 945.5 74.8L960 82L960 0L945.5 0C931 0 902 0 872.8 0C843.7 0 814.3 0 785.2 0C756 0 727 0 698 0C669 0 640 0 611 0C582 0 553 0 523.8 0C494.7 0 465.3 0 436.2 0C407 0 378 0 349 0C320 0 291 0 262 0C233 0 204 0 174.8 0C145.7 0 116.3 0 87.2 0C58 0 29 0 14.5 0L0 0Z" fill="#fa7268"></path><path d="M0 152L14.5 162.8C29 173.7 58 195.3 87.2 215.2C116.3 235 145.7 253 174.8 257.5C204 262 233 253 262 235.8C291 218.7 320 193.3 349 198.7C378 204 407 240 436.2 267C465.3 294 494.7 312 523.8 308.5C553 305 582 280 611 265.7C640 251.3 669 247.7 698 232.3C727 217 756 190 785.2 170.2C814.3 150.3 843.7 137.7 872.8 154.8C902 172 931 219 945.5 242.5L960 266L960 80L945.5 72.8C931 65.7 902 51.3 872.8 48.7C843.7 46 814.3 55 785.2 64.8C756 74.7 727 85.3 698 94.3C669 103.3 640 110.7 611 100.8C582 91 553 64 523.8 61.3C494.7 58.7 465.3 80.3 436.2 83C407 85.7 378 69.3 349 70.2C320 71 291 89 262 87.2C233 85.3 204 63.7 174.8 52C145.7 40.3 116.3 38.7 87.2 39.7C58 40.7 29 44.3 14.5 46.2L0 48Z" fill="#ef5f67"></path><path d="M0 222L14.5 226.5C29 231 58 240 87.2 259.8C116.3 279.7 145.7 310.3 174.8 318.5C204 326.7 233 312.3 262 294.3C291 276.3 320 254.7 349 261C378 267.3 407 301.7 436.2 325.2C465.3 348.7 494.7 361.3 523.8 355C553 348.7 582 323.3 611 317C640 310.7 669 323.3 698 316.2C727 309 756 282 785.2 252.3C814.3 222.7 843.7 190.3 872.8 204.7C902 219 931 280 945.5 310.5L960 341L960 264L945.5 240.5C931 217 902 170 872.8 152.8C843.7 135.7 814.3 148.3 785.2 168.2C756 188 727 215 698 230.3C669 245.7 640 249.3 611 263.7C582 278 553 303 523.8 306.5C494.7 310 465.3 292 436.2 265C407 238 378 202 349 196.7C320 191.3 291 216.7 262 233.8C233 251 204 260 174.8 255.5C145.7 251 116.3 233 87.2 213.2C58 193.3 29 171.7 14.5 160.8L0 150Z" fill="#e34c67"></path><path d="M0 347L14.5 356C29 365 58 383 87.2 398.2C116.3 413.3 145.7 425.7 174.8 422.8C204 420 233 402 262 377.8C291 353.7 320 323.3 349 337.8C378 352.3 407 411.7 436.2 434.2C465.3 456.7 494.7 442.3 523.8 424.3C553 406.3 582 384.7 611 390C640 395.3 669 427.7 698 423.2C727 418.7 756 377.3 785.2 346.7C814.3 316 843.7 296 872.8 315.8C902 335.7 931 395.3 945.5 425.2L960 455L960 339L945.5 308.5C931 278 902 217 872.8 202.7C843.7 188.3 814.3 220.7 785.2 250.3C756 280 727 307 698 314.2C669 321.3 640 308.7 611 315C582 321.3 553 346.7 523.8 353C494.7 359.3 465.3 346.7 436.2 323.2C407 299.7 378 265.3 349 259C320 252.7 291 274.3 262 292.3C233 310.3 204 324.7 174.8 316.5C145.7 308.3 116.3 277.7 87.2 257.8C58 238 29 229 14.5 224.5L0 220Z" fill="#d53867"></path><path d="M0 541L14.5 541C29 541 58 541 87.2 541C116.3 541 145.7 541 174.8 541C204 541 233 541 262 541C291 541 320 541 349 541C378 541 407 541 436.2 541C465.3 541 494.7 541 523.8 541C553 541 582 541 611 541C640 541 669 541 698 541C727 541 756 541 785.2 541C814.3 541 843.7 541 872.8 541C902 541 931 541 945.5 541L960 541L960 453L945.5 423.2C931 393.3 902 333.7 872.8 313.8C843.7 294 814.3 314 785.2 344.7C756 375.3 727 416.7 698 421.2C669 425.7 640 393.3 611 388C582 382.7 553 404.3 523.8 422.3C494.7 440.3 465.3 454.7 436.2 432.2C407 409.7 378 350.3 349 335.8C320 321.3 291 351.7 262 375.8C233 400 204 418 174.8 420.8C145.7 423.7 116.3 411.3 87.2 396.2C58 381 29 363 14.5 354L0 345Z" fill="#c62368"></path></svg>