<svg id="visual" viewBox="0 0 960 540" width="960" height="540" xmlns="http://www.w3.org/2000/svg" xmlns:xlink="http://www.w3.org/1999/xlink" version="1.1"><rect x="0" y="0" width="960" height="540" fill="#001220"></rect><path d="M0 309L32 310.2C64 311.3 128 313.7 192 324.3C256 335 320 354 384 358.7C448 363.3 512 353.7 576 342.3C640 331 704 318 768 317.2C832 316.3 896 327.7 928 333.3L960 339L960 541L928 541C896 541 832 541 768 541C704 541 640 541 576 541C512 541 448 541 384 541C320 541 256 541 192 541C128 541 64 541 32 541L0 541Z" fill="#C62368" stroke-linecap="round" stroke-linejoin="miter"></path></svg>